<svg fill="#9333EA" role="img" viewBox="0 0 24 24" xmlns="http://www.w3.org/2000/svg"><title>Amazon CloudFront</title><path d="M11.55 4.4 5.3 7.3l.42.9 6.25-2.9zm.9 0-.42.9 6.25 2.9.42-.9zM5.72 15.8l-.42.9 6.25 2.9.45-.95zm12.56 0-6.28 2.85.45.95 6.25-2.9z"/><path d="M12 9.3a2.7 2.7 0 1 0 0 5.4 2.7 2.7 0 0 0 0-5.4zm0-7.3a2.15 2.15 0 1 0 0 4.3 2.15 2.15 0 0 0 0-4.3zm0 16a2.15 2.15 0 1 0 0 4.3 2.15 2.15 0 0 0 0-4.3zM4.3 5.85a2.15 2.15 0 1 0 0 4.3 2.15 2.15 0 0 0 0-4.3zm15.4 0a2.15 2.15 0 1 0 0 4.3 2.15 2.15 0 0 0 0-4.3zM4.3 13.85a2.15 2.15 0 1 0 0 4.3 2.15 2.15 0 0 0 0-4.3zm15.4 0a2.15 2.15 0 1 0 0 4.3 2.15 2.15 0 0 0 0-4.3z"/></svg>
